<svg width="24" height="24" viewBox="0 0 24 24" fill="none" xmlns="http://www.w3.org/2000/svg">
<path fill-rule="evenodd" clip-rule="evenodd" d="M6 5H3L3 19H6V5ZM3 3C1.89543 3 1 3.89543 1 5V19C1 20.1046 1.89543 21 3 21H6C7.10457 21 8 20.1046 8 19V5C8 3.89543 7.10457 3 6 3H3Z" fill="#1347FF"/>
<path fill-rule="evenodd" clip-rule="evenodd" d="M14 5H11L11 11H14V5ZM11 3C9.89543 3 9 3.89543 9 5V11C9 12.1046 9.89543 13 11 13H14C15.1046 13 16 12.1046 16 11V5C16 3.89543 15.1046 3 14 3H11Z" fill="#1347FF"/>
<path fill-rule="evenodd" clip-rule="evenodd" d="M14 16H11L11 19H14V16ZM11 14C9.89543 14 9 14.8954 9 16V19C9 20.1046 9.89543 21 11 21H14C15.1046 21 16 20.1046 16 19V16C16 14.8954 15.1046 14 14 14H11Z" fill="#1347FF"/>
<path fill-rule="evenodd" clip-rule="evenodd" d="M22 5H19L19 11H22V5ZM19 3C17.8954 3 17 3.89543 17 5V11C17 12.1046 17.8954 13 19 13H22C23.1046 13 24 12.1046 24 11V5C24 3.89543 23.1046 3 22 3H19Z" fill="#1347FF"/>
<path fill-rule="evenodd" clip-rule="evenodd" d="M22 16H19L19 19H22V16ZM19 14C17.8954 14 17 14.8954 17 16V19C17 20.1046 17.8954 21 19 21H22C23.1046 21 24 20.1046 24 19V16C24 14.8954 23.1046 14 22 14H19Z" fill="#1347FF"/>
</svg>
