<svg width="24" height="24" viewBox="0 0 24 24" fill="none" xmlns="http://www.w3.org/2000/svg">
<path fill-rule="evenodd" clip-rule="evenodd" d="M16 9H20V21C20 22.1046 19.1046 23 18 23C16.8954 23 16 22.1046 16 21V9Z" fill="#99A1B7"/>
<path fill-rule="evenodd" clip-rule="evenodd" d="M7 7C6.44772 7 6 6.55228 6 6L6 2C6 1.44772 6.44772 1 7 1C7.55228 1 8 1.44772 8 2L8 6C8 6.55228 7.55228 7 7 7Z" fill="#99A1B7"/>
<path fill-rule="evenodd" clip-rule="evenodd" d="M10 7C9.44772 7 9 6.55228 9 6L9 2C9 1.44772 9.44772 1 10 1C10.5523 1 11 1.44772 11 2L11 6C11 6.55228 10.5523 7 10 7Z" fill="#99A1B7"/>
<path fill-rule="evenodd" clip-rule="evenodd" d="M4 7C3.44772 7 3 6.55228 3 6L3 2C3 1.44772 3.44772 1 4 1C4.55228 1 5 1.44772 5 2L5 6C5 6.55228 4.55228 7 4 7Z" fill="#99A1B7"/>
<path fill-rule="evenodd" clip-rule="evenodd" d="M5 11H9V21C9 22.1046 8.10457 23 7 23C5.89543 23 5 22.1046 5 21V11Z" fill="#99A1B7"/>
<path fill-rule="evenodd" clip-rule="evenodd" d="M3 6H11V10C11 11.6569 9.65685 13 8 13H6C4.34315 13 3 11.6569 3 10V6ZM5 8V10C5 10.5523 5.44772 11 6 11H8C8.55228 11 9 10.5523 9 10V8H5Z" fill="#99A1B7"/>
<path fill-rule="evenodd" clip-rule="evenodd" d="M14 5C14 2.79086 15.7909 1 18 1C20.2091 1 22 2.79086 22 5V7C22 9.20914 20.2091 11 18 11C15.7909 11 14 9.20914 14 7V5ZM18 3C16.8954 3 16 3.89543 16 5V7C16 8.10457 16.8954 9 18 9C19.1046 9 20 8.10457 20 7V5C20 3.89543 19.1046 3 18 3Z" fill="#99A1B7"/>
</svg>
