<svg width="24" height="24" viewBox="0 0 24 24" fill="none" xmlns="http://www.w3.org/2000/svg">
<g clip-path="url(#clip0_1_57)">
<path fill-rule="evenodd" clip-rule="evenodd" d="M13.2072 15.8788L12.738 15.4096C11.4096 14.0812 9.55618 14.6154 8.64723 15.5243L6.27433 17.8972C5.85421 18.3174 5.39323 18.9995 5.37057 19.9173C5.34723 20.8631 5.79855 21.627 6.33579 22.1642C7.09322 22.9217 8.41926 23.6883 9.95687 23.919C11.602 24.1658 13.5329 23.7955 15.1643 22.1642L21.1643 16.1642C22.7177 14.6108 23.2378 12.8041 23.0317 11.1164C22.8376 9.52646 22.0227 8.19406 21.1643 7.33569C20.5996 6.77095 19.8533 6.51869 19.2246 6.46508C18.5842 6.41045 17.6387 6.53333 16.8975 7.27444L14.5246 9.64734C13.6157 10.5563 13.0815 12.4095 14.4097 13.7379C14.4097 13.7379 14.4098 13.738 14.4097 13.7379L14.8788 14.2071C14.7061 14.4274 14.4533 14.7183 14.0858 15.0858C13.7183 15.4533 13.4275 15.7061 13.2072 15.8788ZM15.8241 12.3239L17.125 13.6251C17.125 13.6251 17.4006 13.9007 16.9269 14.7448C16.6872 15.1718 16.2558 15.7442 15.5 16.5001C14.7442 17.2559 14.1717 17.6873 13.7447 17.9269C12.9006 18.4007 12.625 18.125 12.625 18.125L11.3238 16.8238C11.0069 16.5069 10.4417 16.5583 10.0614 16.9386L7.68854 19.3115C7.30827 19.6917 7.19879 20.1988 7.75 20.75C8.67622 21.6762 11.5 23 13.7501 20.75L19.7501 14.75C22.0001 12.4999 20.9571 9.95691 19.7501 8.74991C19.4332 8.43301 18.692 8.30838 18.3118 8.68866L15.9389 11.0616C15.5586 11.4418 15.5072 12.007 15.8241 12.3239Z" fill="#99A1B7"/>
<path fill-rule="evenodd" clip-rule="evenodd" d="M11.2401 6.24086C11.2805 6.30637 11.3194 6.37285 11.3568 6.44025C11.4365 6.58387 11.5095 6.73168 11.5753 6.88319L10.9615 7.14977C10.9614 7.15002 10.9617 7.14952 10.9615 7.14977L11.5753 6.88319C11.8579 7.53268 12 8.22141 12 8.93047C12.0014 9.60966 11.8675 10.282 11.6065 10.9066C11.3551 11.5096 10.9943 12.053 10.5341 12.5179C10.0782 12.9819 9.5383 13.3505 8.9446 13.6033C8.32812 13.8663 7.67471 14 6.99999 14C6.32528 14 5.67187 13.8663 5.05539 13.6019C4.46022 13.3476 3.92613 12.9814 3.46591 12.5165C3.01003 12.0553 2.64583 11.5081 2.39347 10.9051C2.1321 10.2789 2 9.61484 2 8.92902C2.00041 8.15117 2.17638 7.38392 2.5142 6.68704C2.85286 5.99618 3.33992 5.39265 3.93892 4.92164C4.18763 4.7249 4.41395 4.50021 4.61363 4.2518C4.88118 3.91851 5.09439 3.54984 5.24865 3.15405C5.25983 3.12538 5.27069 3.09656 5.28125 3.06761C5.28951 3.04497 5.29746 3.02204 5.30511 2.99882C5.34038 2.89169 5.36907 2.77832 5.39115 2.65914C5.39149 2.65733 5.39182 2.65552 5.39215 2.6537C5.43858 2.40043 5.45524 2.121 5.44176 1.81948L5.41051 1.12203C5.40625 1.0305 5.50426 0.96947 5.58096 1.01597L6.16761 1.36905C6.36386 1.48751 6.55054 1.61852 6.72737 1.76187C6.72742 1.76191 6.72732 1.76183 6.72737 1.76187C6.863 1.87184 6.99298 1.98918 7.11688 2.11357C7.22593 2.22304 7.33039 2.33807 7.43017 2.45858C7.6747 2.75392 7.89112 3.08221 8.07812 3.44248C8.11788 3.51877 8.15611 3.59461 8.1928 3.67001C8.31646 3.92413 8.42268 4.17315 8.51139 4.41674C8.51328 4.42193 8.51517 4.42712 8.51704 4.4323C8.52614 4.45748 8.53506 4.48261 8.54379 4.50767C8.61461 4.71107 8.67308 4.9106 8.71917 5.10606C8.71935 5.10681 8.71953 5.10756 8.71971 5.10832C8.79499 5.4282 8.8371 5.73718 8.84589 6.0344C8.84622 6.04547 8.8465 6.05653 8.84673 6.06757C8.84846 6.14875 8.84768 6.22904 8.8444 6.30843C8.84434 6.31004 8.84427 6.31165 8.8442 6.31325C8.84329 6.33475 8.84219 6.35618 8.8409 6.37755C8.83948 6.4037 8.84942 6.42986 8.86931 6.44729C8.89062 6.46763 8.91477 6.47054 8.93039 6.46909C8.94602 6.46763 8.96874 6.46182 8.98863 6.44003C9.00353 6.42305 9.01821 6.40607 9.03267 6.38907C9.03297 6.38872 9.03327 6.38836 9.03357 6.38801C9.16682 6.23127 9.28149 6.07344 9.37674 5.91579C9.40389 5.87086 9.42946 5.82595 9.45344 5.78107C9.51959 5.65728 9.57359 5.53382 9.61505 5.4113L9.79971 4.86933C9.80607 4.85122 9.81668 4.83499 9.8306 4.82206C9.84453 4.80912 9.86135 4.79988 9.87958 4.79515C9.89781 4.79041 9.9169 4.79033 9.93517 4.7949C9.95344 4.79948 9.97033 4.80857 9.98437 4.82138L10.3977 5.20933C10.4431 5.25182 10.4876 5.29512 10.5313 5.33923C10.6351 5.44396 10.7341 5.5532 10.8282 5.66659C10.8854 5.73555 10.9407 5.80605 10.9942 5.87801C10.9953 5.87943 10.9963 5.88086 10.9974 5.88229C11.0833 5.99816 11.1643 6.11779 11.2401 6.24086ZM7.51643 7.92033C7.02045 7.46604 6.81277 6.84129 6.84384 6.26908L6.84447 6.25759C6.86284 5.95188 6.80258 5.51866 6.57271 4.94571C6.45029 5.1385 6.31701 5.32476 6.17328 5.5038L6.17244 5.50485C5.87939 5.86941 5.54651 6.20006 5.17972 6.49021L5.17517 6.49381C4.81577 6.77642 4.51966 7.14123 4.31198 7.56341C4.10774 7.98626 4.00032 8.45387 4 8.9296M7.51643 7.92033C8.05568 8.4172 8.69347 8.49975 9.11558 8.46049C9.32749 8.44079 9.61962 8.37883 9.9191 8.21692C9.97296 8.44828 9.99999 8.6862 9.99999 8.93047L9.99999 8.93454C10.0008 9.34856 9.91916 9.75731 9.76116 10.1354L9.76056 10.1369C9.60753 10.5039 9.39028 10.8305 9.11265 11.111L9.10756 11.1161C8.83372 11.3948 8.51185 11.6138 8.1611 11.7632L8.15981 11.7637C7.79205 11.9206 7.40565 12 6.99999 12C6.59443 12 6.20943 11.9207 5.84384 11.7638L5.84115 11.7627C5.49016 11.6127 5.17076 11.3957 4.8879 11.1101C4.61404 10.8329 4.39292 10.5018 4.23878 10.1339C4.0809 9.75522 4.00013 9.35347 4 8.9296" fill="#99A1B7"/>
</g>
<defs>
<clipPath id="clip0_1_57">
<rect width="24" height="24" fill="white"/>
</clipPath>
</defs>
</svg>
