<svg width="24" height="24" viewBox="0 0 24 24" fill="none" xmlns="http://www.w3.org/2000/svg">
<path fill-rule="evenodd" clip-rule="evenodd" d="M18 2H7C6.44772 2 6 2.44772 6 3V21C6 21.5523 6.44772 22 7 22H18C18.5523 22 19 21.5523 19 21V3C19 2.44772 18.5523 2 18 2ZM7 0C5.34315 0 4 1.34315 4 3V21C4 22.6569 5.34315 24 7 24H18C19.6569 24 21 22.6569 21 21V3C21 1.34315 19.6569 0 18 0H7Z" fill="#99A1B7"/>
<path d="M11 18C11 17.4477 11.4477 17 12 17H13C13.5523 17 14 17.4477 14 18V19C14 19.5523 13.5523 20 13 20H12C11.4477 20 11 19.5523 11 19V18Z" fill="#99A1B7"/>
</svg>
