<svg width="24" height="24" viewBox="0 0 24 24" fill="none" xmlns="http://www.w3.org/2000/svg">
<path fill-rule="evenodd" clip-rule="evenodd" d="M5 3V21H13V3H5ZM4 1C3.44772 1 3 1.44772 3 2V22C3 22.5523 3.44772 23 4 23H14C14.5523 23 15 22.5523 15 22V2C15 1.44772 14.5523 1 14 1H4Z" fill="#99A1B7"/>
<path fill-rule="evenodd" clip-rule="evenodd" d="M15 11V21H21V11H15ZM14 9C13.4477 9 13 9.44772 13 10V22C13 22.5523 13.4477 23 14 23H22C22.5523 23 23 22.5523 23 22V10C23 9.44772 22.5523 9 22 9H14Z" fill="#99A1B7"/>
<path fill-rule="evenodd" clip-rule="evenodd" d="M4 6C4 5.44772 4.44772 5 5 5H13C13.5523 5 14 5.44772 14 6C14 6.55228 13.5523 7 13 7H5C4.44772 7 4 6.55228 4 6Z" fill="#99A1B7"/>
<path fill-rule="evenodd" clip-rule="evenodd" d="M4 10C4 9.44772 4.44772 9 5 9H13C13.5523 9 14 9.44772 14 10C14 10.5523 13.5523 11 13 11H5C4.44772 11 4 10.5523 4 10Z" fill="#99A1B7"/>
<path fill-rule="evenodd" clip-rule="evenodd" d="M4 14C4 13.4477 4.44772 13 5 13H22C22.5523 13 23 13.4477 23 14C23 14.5523 22.5523 15 22 15H5C4.44772 15 4 14.5523 4 14Z" fill="#99A1B7"/>
<path fill-rule="evenodd" clip-rule="evenodd" d="M4 18C4 17.4477 4.44772 17 5 17H22C22.5523 17 23 17.4477 23 18C23 18.5523 22.5523 19 22 19H5C4.44772 19 4 18.5523 4 18Z" fill="#99A1B7"/>
</svg>
