<svg width="24" height="24" viewBox="0 0 24 24" fill="none" xmlns="http://www.w3.org/2000/svg">
<g clip-path="url(#clip0_1_66)">
<path fill-rule="evenodd" clip-rule="evenodd" d="M18.1793 10.0797L17.9569 9.85731C16.6732 8.57357 14.8995 9.10053 14.0441 9.95588L12.0057 11.9943C11.6124 12.3876 11.1687 13.0384 11.1469 13.922C11.1244 14.8335 11.5601 15.5601 12.0585 16.0585C12.7507 16.7507 13.9445 17.438 15.3267 17.6453C16.8163 17.8688 18.5685 17.5312 20.0412 16.0585L25.1955 10.9042C26.5903 9.50939 27.0679 7.87167 26.8802 6.33449C26.7044 4.89505 25.9688 3.6948 25.1955 2.9215C24.6531 2.3791 23.9441 2.14239 23.3539 2.09206C22.7518 2.04071 21.8458 2.15457 21.1315 2.86889L19.0931 4.9073C18.2377 5.76262 17.7108 7.53623 18.9943 8.81996C18.9943 8.8199 18.9944 8.82001 18.9943 8.81996L19.2166 9.04233C19.0896 9.1908 18.926 9.36921 18.716 9.5792C18.5061 9.78912 18.3277 9.9527 18.1793 10.0797ZM20.4087 7.40591L21.5262 8.52367C21.5262 8.52367 21.6163 8.61378 21.5898 8.85306C21.5516 9.19786 21.2713 9.8524 20.1303 10.9934C18.9893 12.1344 18.3347 12.4147 17.9899 12.4529C17.7506 12.4794 17.6605 12.3893 17.6605 12.3893L16.5427 11.2715C16.2705 10.9993 15.785 11.0434 15.4583 11.3701L13.4199 13.4085C13.0932 13.7352 12.9992 14.1708 13.4727 14.6443C14.2684 15.4399 16.6941 16.5771 18.627 14.6443L23.7813 9.49C25.7141 7.55714 24.8181 5.37258 23.7813 4.33572C23.5091 4.06349 22.8724 3.95643 22.5457 4.2831L20.5073 6.32151C20.1806 6.64818 20.1365 7.13368 20.4087 7.40591Z" fill="#99A1B7"/>
<path fill-rule="evenodd" clip-rule="evenodd" d="M6.5 7C7.88071 7 9 5.88071 9 4.5C9 3.11929 7.88071 2 6.5 2C5.11929 2 4 3.11929 4 4.5C4 5.88071 5.11929 7 6.5 7ZM6.5 9C8.98528 9 11 6.98528 11 4.5C11 2.01472 8.98528 0 6.5 0C4.01472 0 2 2.01472 2 4.5C2 6.98528 4.01472 9 6.5 9Z" fill="#99A1B7"/>
<path fill-rule="evenodd" clip-rule="evenodd" d="M12.4142 14.4142C12.0391 14.7893 11.5304 15 11 15L2 15C1.46957 15 0.960859 14.7893 0.585786 14.4142C0.210714 14.0391 0 13.5304 0 13C2.38419e-07 11.3276 0.749453 9.77883 1.98929 8.67675C3.22146 7.58149 4.84717 7 6.5 7C8.15283 7 9.77854 7.5815 11.0107 8.67675C12.2505 9.77883 13 11.3276 13 13C13 13.5304 12.7893 14.0391 12.4142 14.4142ZM2 13C2 12.2918 2.2113 11.6029 2.60287 11C2.79784 10.6998 3.0375 10.4209 3.31802 10.1716C4.16193 9.42143 5.30653 9 6.5 9C7.69347 9 8.83807 9.42143 9.68198 10.1716C9.9625 10.4209 10.2022 10.6998 10.3971 11C10.7887 11.6029 11 12.2918 11 13L2 13Z" fill="#99A1B7"/>
</g>
<defs>
<clipPath id="clip0_1_66">
<rect width="24" height="24" fill="white"/>
</clipPath>
</defs>
</svg>
