<svg width="16" height="16" viewBox="0 0 16 16" fill="none" xmlns="http://www.w3.org/2000/svg">
<g clip-path="url(#clip0_1_11)">
<path fill-rule="evenodd" clip-rule="evenodd" d="M7.17931 8.21664L6.95694 7.99427C5.6732 6.71053 3.89947 7.2375 3.04412 8.09285L1.0057 10.1313C0.612386 10.5246 0.168659 11.1754 0.146852 12.0589C0.124354 12.9705 0.560108 13.6971 1.0585 14.1955C1.75065 14.8876 2.94453 15.575 4.32668 15.7823C5.81632 16.0058 7.56847 15.6682 9.04121 14.1955L14.1955 9.04118C15.5903 7.64636 16.0679 6.00864 15.8802 4.47145C15.7044 3.03201 14.9688 1.83176 14.1955 1.05847C13.6531 0.516059 12.9441 0.279356 12.3539 0.229021C11.7518 0.177673 10.8458 0.291536 10.1315 1.00585L8.09306 3.04426C7.23774 3.89958 6.71079 5.67319 7.99431 6.95692C7.99426 6.95686 7.99437 6.95698 7.99431 6.95692L8.21664 7.1793C8.08964 7.32776 7.92603 7.50618 7.71605 7.71616C7.50612 7.92608 7.32775 8.08966 7.17931 8.21664ZM9.40869 5.54287L10.5262 6.66063C10.5262 6.66063 10.6163 6.75074 10.5898 6.99002C10.5516 7.33482 10.2713 7.98936 9.13026 9.13037C7.98926 10.2714 7.33472 10.5517 6.98992 10.5899C6.75064 10.6164 6.66053 10.5263 6.66053 10.5263L5.54273 9.40848C5.2705 9.13626 4.785 9.18039 4.45833 9.50706L2.41991 11.5455C2.09324 11.8721 1.99919 12.3077 2.47271 12.7812C3.26837 13.5769 5.69414 14.7141 7.627 12.7812L12.7813 7.62696C14.7141 5.69411 13.8181 3.50955 12.7813 2.47268C12.5091 2.20045 11.8724 2.09339 11.5457 2.42006L9.50727 4.45848C9.1806 4.78515 9.13647 5.27065 9.40869 5.54287Z" fill="#99A1B7"/>
</g>
<defs>
<clipPath id="clip0_1_11">
<rect width="16" height="16" fill="white"/>
</clipPath>
</defs>
</svg>
