<svg width="32" height="32" viewBox="0 0 32 32" fill="none" xmlns="http://www.w3.org/2000/svg">
<path fill-rule="evenodd" clip-rule="evenodd" d="M20 4H3L3 18H20V4ZM3 2C1.89543 2 1 2.89543 1 4V18C1 19.1046 1.89543 20 3 20H20C21.1046 20 22 19.1046 22 18V4C22 2.89543 21.1046 2 20 2H3Z" fill="#99A1B7"/>
<path fill-rule="evenodd" clip-rule="evenodd" d="M13 20H10L10 23H13V20ZM10 18C8.89543 18 8 18.8954 8 20V23C8 24.1046 8.89543 25 10 25H13C14.1046 25 15 24.1046 15 23V20C15 18.8954 14.1046 18 13 18H10Z" fill="#99A1B7"/>
<path fill-rule="evenodd" clip-rule="evenodd" d="M20 25H3L3 28H20V25ZM3 23C1.89543 23 1 23.8954 1 25V28C1 29.1046 1.89543 30 3 30H20C21.1046 30 22 29.1046 22 28V25C22 23.8954 21.1046 23 20 23H3Z" fill="#99A1B7"/>
<path fill-rule="evenodd" clip-rule="evenodd" d="M29 25H26L26 28H29V25ZM26 23C24.8954 23 24 23.8954 24 25V28C24 29.1046 24.8954 30 26 30H29C30.1046 30 31 29.1046 31 28V25C31 23.8954 30.1046 23 29 23H26Z" fill="#99A1B7"/>
<path fill-rule="evenodd" clip-rule="evenodd" d="M29 4H26L26 18H29V4ZM26 2C24.8954 2 24 2.89543 24 4V18C24 19.1046 24.8954 20 26 20H29C30.1046 20 31 19.1046 31 18V4C31 2.89543 30.1046 2 29 2H26Z" fill="#99A1B7"/>
</svg>
