<svg width="32" height="32" viewBox="0 0 32 32" fill="none" xmlns="http://www.w3.org/2000/svg">
<path fill-rule="evenodd" clip-rule="evenodd" d="M22 7H10V13H22V7ZM10 5C8.89543 5 8 5.89543 8 7V15H24V7C24 5.89543 23.1046 5 22 5H10Z" fill="#99A1B7"/>
<path fill-rule="evenodd" clip-rule="evenodd" d="M18 3H14V5H18V3ZM14 1C12.8954 1 12 1.89543 12 3V7H20V3C20 1.89543 19.1046 1 18 1H14Z" fill="#99A1B7"/>
<path fill-rule="evenodd" clip-rule="evenodd" d="M22 29L10 29L10 23L22 23L22 29ZM10 31C8.89543 31 8 30.1046 8 29L8 21L24 21L24 29C24 30.1046 23.1046 31 22 31L10 31Z" fill="#99A1B7"/>
<path fill-rule="evenodd" clip-rule="evenodd" d="M5 11C4.44772 11 4 11.4477 4 12V24C4 24.5523 4.44771 25 5 25H9V27H5C3.34315 27 2 25.6569 2 24V12C2 10.3431 3.34315 9 5 9H9V11H5ZM27 11H23V9H27C28.6569 9 30 10.3431 30 12V24C30 25.6569 28.6569 27 27 27H23V25H27C27.5523 25 28 24.5523 28 24V12C28 11.4477 27.5523 11 27 11Z" fill="#99A1B7"/>
<path d="M24 18C24 18.5523 23.5523 19 23 19C22.4477 19 22 18.5523 22 18C22 17.4477 22.4477 17 23 17C23.5523 17 24 17.4477 24 18Z" fill="#99A1B7"/>
<path d="M20 18C20 18.5523 19.5523 19 19 19C18.4477 19 18 18.5523 18 18C18 17.4477 18.4477 17 19 17C19.5523 17 20 17.4477 20 18Z" fill="#99A1B7"/>
</svg>
