<svg width="24" height="24" viewBox="0 0 24 24" fill="none" xmlns="http://www.w3.org/2000/svg">
<path fill-rule="evenodd" clip-rule="evenodd" d="M18 3H6C5.44772 3 5 3.44772 5 4V20C5 20.5523 5.44772 21 6 21H18C18.5523 21 19 20.5523 19 20V4C19 3.44772 18.5523 3 18 3ZM6 1C4.34315 1 3 2.34315 3 4V20C3 21.6569 4.34315 23 6 23H18C19.6569 23 21 21.6569 21 20V4C21 2.34315 19.6569 1 18 1H6Z" fill="#99A1B7"/>
<path fill-rule="evenodd" clip-rule="evenodd" d="M7 6C7 5.44772 7.44772 5 8 5H16C16.5523 5 17 5.44772 17 6C17 6.55228 16.5523 7 16 7H8C7.44772 7 7 6.55228 7 6Z" fill="#99A1B7"/>
<path fill-rule="evenodd" clip-rule="evenodd" d="M7 10C7 9.44772 7.44772 9 8 9H16C16.5523 9 17 9.44772 17 10C17 10.5523 16.5523 11 16 11H8C7.44772 11 7 10.5523 7 10Z" fill="#99A1B7"/>
<path fill-rule="evenodd" clip-rule="evenodd" d="M7 14C7 13.4477 7.44772 13 8 13H14C14.5523 13 15 13.4477 15 14C15 14.5523 14.5523 15 14 15H8C7.44772 15 7 14.5523 7 14Z" fill="#99A1B7"/>
<path fill-rule="evenodd" clip-rule="evenodd" d="M14 18C14 17.4477 14.4477 17 15 17H16C16.5523 17 17 17.4477 17 18C17 18.5523 16.5523 19 16 19H15C14.4477 19 14 18.5523 14 18Z" fill="#99A1B7"/>
<path fill-rule="evenodd" clip-rule="evenodd" d="M7 18C7 17.4477 7.44772 17 8 17H9C9.55228 17 10 17.4477 10 18C10 18.5523 9.55228 19 9 19H8C7.44772 19 7 18.5523 7 18Z" fill="#99A1B7"/>
</svg>
