<svg width="32" height="32" viewBox="0 0 32 32" fill="none" xmlns="http://www.w3.org/2000/svg">
<path fill-rule="evenodd" clip-rule="evenodd" d="M26 7H6L6 16H26V7ZM4 5V16C4 17.1046 4.89543 18 6 18H26C27.1046 18 28 17.1046 28 16V5H4Z" fill="#99A1B7"/>
<path fill-rule="evenodd" clip-rule="evenodd" d="M28 3H4V5H28V3ZM2 1V7H30V1H2Z" fill="#99A1B7"/>
<path fill-rule="evenodd" clip-rule="evenodd" d="M5 23C4.44772 23 4 23.4477 4 24V27C4 27.5523 4.44772 28 5 28H17V30H5C3.34315 30 2 28.6569 2 27V24C2 22.3431 3.34315 21 5 21H16V23H5ZM27 23H23.8929V21H27C28.6569 21 30 22.3431 30 24V27C30 28.6569 28.6569 30 27 30H23V28H27C27.5523 28 28 27.5523 28 27V24C28 23.4477 27.5523 23 27 23Z" fill="#99A1B7"/>
<path fill-rule="evenodd" clip-rule="evenodd" d="M20 29C22.2091 29 24 27.2091 24 25C24 22.7909 22.2091 21 20 21C17.7909 21 16 22.7909 16 25C16 27.2091 17.7909 29 20 29ZM20 31C23.3137 31 26 28.3137 26 25C26 21.6863 23.3137 19 20 19C16.6863 19 14 21.6863 14 25C14 28.3137 16.6863 31 20 31Z" fill="#99A1B7"/>
<path d="M15 18H17V21H15V18Z" fill="#99A1B7"/>
<path d="M6 29H8V32H6V29Z" fill="#99A1B7"/>
<path d="M25 29H27V32H25V29Z" fill="#99A1B7"/>
</svg>
