<svg width="24" height="24" viewBox="0 0 24 24" fill="none" xmlns="http://www.w3.org/2000/svg">
<path fill-rule="evenodd" clip-rule="evenodd" d="M4 3C4 1.89543 4.89543 1 6 1H18C19.1046 1 20 1.89543 20 3V23H4V11H6V21H18V3H6V6H4V3Z" fill="#99A1B7"/>
<path fill-rule="evenodd" clip-rule="evenodd" d="M3 7V10H8V7H3ZM2 5C1.44772 5 1 5.44772 1 6V11C1 11.5523 1.44772 12 2 12H9C9.55229 12 10 11.5523 10 11V6C10 5.44772 9.55229 5 9 5H2Z" fill="#99A1B7"/>
<path d="M16 12.5C16 13.3284 15.3284 14 14.5 14C13.6716 14 13 13.3284 13 12.5C13 11.6716 13.6716 11 14.5 11C15.3284 11 16 11.6716 16 12.5Z" fill="#99A1B7"/>
</svg>
