<svg width="24" height="24" viewBox="0 0 24 24" fill="none" xmlns="http://www.w3.org/2000/svg">
<path fill-rule="evenodd" clip-rule="evenodd" d="M16.0001 10.5C16.0001 13.4587 13.4587 16 10.5001 16C7.54139 16 5.00006 13.4587 5.00006 10.5C5.00006 7.54133 7.54139 5 10.5001 5C13.4587 5 16.0001 7.54133 16.0001 10.5ZM14.5027 16.8438C13.3444 17.5761 11.9717 18 10.5001 18C6.35793 18 3.00006 14.6421 3.00006 10.5C3.00006 6.35786 6.35793 3 10.5001 3C14.6422 3 18.0001 6.35786 18.0001 10.5C18.0001 12.357 17.3251 14.0565 16.2072 15.3663L20.0835 19.2426L18.4925 20.8336L14.5027 16.8438Z" fill="#1347FF"/>
</svg>
