<?xml version="1.0" encoding="utf-8"?><svg viewBox="0 0 32 32" xmlns="http://www.w3.org/2000/svg" xmlns:xlink="http://www.w3.org/1999/xlink"><style>:root>svg{display:none}:root>svg:target{display:block}</style><svg viewBox="0 0 24 24" id="dasboard" xmlns="http://www.w3.org/2000/svg"><path fill-rule="evenodd" clip-rule="evenodd" d="M6 5H3v14h3V5zM3 3a2 2 0 00-2 2v14a2 2 0 002 2h3a2 2 0 002-2V5a2 2 0 00-2-2H3zM14 5h-3v6h3V5zm-3-2a2 2 0 00-2 2v6a2 2 0 002 2h3a2 2 0 002-2V5a2 2 0 00-2-2h-3zM14 16h-3v3h3v-3zm-3-2a2 2 0 00-2 2v3a2 2 0 002 2h3a2 2 0 002-2v-3a2 2 0 00-2-2h-3zM22 5h-3v6h3V5zm-3-2a2 2 0 00-2 2v6a2 2 0 002 2h3a2 2 0 002-2V5a2 2 0 00-2-2h-3zM22 16h-3v3h3v-3zm-3-2a2 2 0 00-2 2v3a2 2 0 002 2h3a2 2 0 002-2v-3a2 2 0 00-2-2h-3z"/></svg><svg viewBox="0 0 24 24" id="dinning" xmlns="http://www.w3.org/2000/svg"><path fill-rule="evenodd" clip-rule="evenodd" d="M16 9h4v12a2 2 0 11-4 0V9zM7 7a1 1 0 01-1-1V2a1 1 0 012 0v4a1 1 0 01-1 1zM10 7a1 1 0 01-1-1V2a1 1 0 012 0v4a1 1 0 01-1 1zM4 7a1 1 0 01-1-1V2a1 1 0 012 0v4a1 1 0 01-1 1zM5 11h4v10a2 2 0 11-4 0V11z"/><path fill-rule="evenodd" clip-rule="evenodd" d="M3 6h8v4a3 3 0 01-3 3H6a3 3 0 01-3-3V6zm2 2v2a1 1 0 001 1h2a1 1 0 001-1V8H5zM14 5a4 4 0 018 0v2a4 4 0 01-8 0V5zm4-2a2 2 0 00-2 2v2a2 2 0 104 0V5a2 2 0 00-2-2z"/></svg><svg viewBox="0 0 24 24" id="emergency" xmlns="http://www.w3.org/2000/svg"><g clip-path="url(#cclip0_1_57)" fill-rule="evenodd" clip-rule="evenodd"><path d="M13.207 15.879l-.469-.47c-1.328-1.328-3.182-.794-4.09.115l-2.374 2.373c-.42.42-.88 1.103-.903 2.02-.024.946.428 1.71.965 2.247.757.758 2.083 1.524 3.62 1.755 1.646.247 3.577-.123 5.208-1.755l6-6c1.554-1.553 2.074-3.36 1.868-5.048-.194-1.59-1.01-2.922-1.868-3.78-.564-.565-1.31-.817-1.94-.87-.64-.056-1.585.067-2.326.808l-2.373 2.373c-.91.91-1.444 2.762-.115 4.09 0 0 0 .001 0 0l.469.47c-.173.22-.426.511-.793.879a9.93 9.93 0 01-.879.793zm2.617-3.555l1.301 1.301s.276.276-.198 1.12c-.24.427-.671 1-1.427 1.755-.756.756-1.328 1.187-1.755 1.427-.844.474-1.12.198-1.12.198l-1.301-1.301c-.317-.317-.882-.266-1.263.115L7.69 19.31c-.38.38-.49.888.061 1.439.926.926 3.75 2.25 6 0l6-6c2.25-2.25 1.207-4.793 0-6-.317-.317-1.058-.442-1.438-.061l-2.373 2.373c-.38.38-.432.945-.115 1.262zM11.24 6.24a5.021 5.021 0 01.335.643l-.614.267.614-.267A5.1 5.1 0 0112 8.93a5.1 5.1 0 01-1.466 3.588 4.945 4.945 0 01-5.479 1.084 4.986 4.986 0 01-1.59-1.085A5.083 5.083 0 012 8.928c0-.778.176-1.545.514-2.242A5.1 5.1 0 013.94 4.922a4.169 4.169 0 001.366-1.923 2.602 2.602 0 00.087-.345 3.72 3.72 0 00.05-.835l-.031-.697c-.005-.092.093-.153.17-.106l.587.353A4.949 4.949 0 017.43 2.46c.244.295.46.623.647.983a7.844 7.844 0 01.466 1.065 6.03 6.03 0 01.176.601 4.644 4.644 0 01.127.96 3.848 3.848 0 01-.006.31.086.086 0 00.028.07c.022.02.046.023.061.021a.088.088 0 00.059-.029 4.37 4.37 0 00.044-.05v-.002a3.635 3.635 0 00.42-.607c.067-.124.12-.247.162-.37L9.8 4.87a.118.118 0 01.08-.074.112.112 0 01.104.026l.414.388a4.933 4.933 0 01.596.669l.003.004c.086.116.167.236.243.359zM7.516 7.92a2.087 2.087 0 01-.672-1.65v-.012c.019-.306-.041-.74-.271-1.312A6.245 6.245 0 015.18 6.49l-.005.003a3.1 3.1 0 00-.863 1.07C4.108 7.985 4 8.453 4 8.93m3.516-1.01a2.078 2.078 0 002.403.297c.054.231.081.47.081.713v.005a3.1 3.1 0 01-.239 1.2v.002c-.153.367-.37.694-.648.974l-.005.005a2.946 2.946 0 01-.947.647H8.16A2.925 2.925 0 017 12a2.9 2.9 0 01-1.156-.236l-.003-.001a2.986 2.986 0 01-.953-.653A3.084 3.084 0 014 8.93"/></g><defs><clipPath id="cclip0_1_57"><path d="M0 0h24v24H0z"/></clipPath></defs></svg><svg viewBox="0 0 24 24" id="mobile" xmlns="http://www.w3.org/2000/svg"><path fill-rule="evenodd" clip-rule="evenodd" d="M18 2H7a1 1 0 00-1 1v18a1 1 0 001 1h11a1 1 0 001-1V3a1 1 0 00-1-1zM7 0a3 3 0 00-3 3v18a3 3 0 003 3h11a3 3 0 003-3V3a3 3 0 00-3-3H7z"/><path d="M11 18a1 1 0 011-1h1a1 1 0 011 1v1a1 1 0 01-1 1h-1a1 1 0 01-1-1v-1z"/></svg><svg viewBox="0 0 24 24" id="navigation" xmlns="http://www.w3.org/2000/svg"><path fill-rule="evenodd" clip-rule="evenodd" d="M5 3v18h8V3H5zM4 1a1 1 0 00-1 1v20a1 1 0 001 1h10a1 1 0 001-1V2a1 1 0 00-1-1H4z"/><path fill-rule="evenodd" clip-rule="evenodd" d="M15 11v10h6V11h-6zm-1-2a1 1 0 00-1 1v12a1 1 0 001 1h8a1 1 0 001-1V10a1 1 0 00-1-1h-8zM4 6a1 1 0 011-1h8a1 1 0 110 2H5a1 1 0 01-1-1z"/><path fill-rule="evenodd" clip-rule="evenodd" d="M4 10a1 1 0 011-1h8a1 1 0 110 2H5a1 1 0 01-1-1zM4 14a1 1 0 011-1h17a1 1 0 110 2H5a1 1 0 01-1-1zM4 18a1 1 0 011-1h17a1 1 0 110 2H5a1 1 0 01-1-1z"/></svg><svg viewBox="0 0 16 16" id="phone" xmlns="http://www.w3.org/2000/svg"><g clip-path="url(#fclip0_1_11)"><path fill-rule="evenodd" clip-rule="evenodd" d="M7.18 8.217l-.223-.223c-1.284-1.283-3.058-.756-3.913.099L1.006 10.13c-.394.394-.837 1.044-.86 1.928-.022.912.414 1.638.912 2.136.693.693 1.887 1.38 3.269 1.587 1.49.224 3.241-.114 4.714-1.587l5.154-5.154c1.395-1.395 1.873-3.032 1.685-4.57-.176-1.439-.911-2.64-1.685-3.413-.542-.542-1.25-.779-1.841-.829-.602-.051-1.508.063-2.222.777L8.093 3.044c-.855.856-1.382 2.63-.099 3.913l.223.222c-.127.149-.291.327-.501.537-.21.21-.388.374-.537.5zm2.229-2.674l1.117 1.118s.09.09.064.329c-.038.345-.319 1-1.46 2.14-1.14 1.141-1.795 1.422-2.14 1.46-.24.026-.33-.064-.33-.064L5.544 9.408c-.272-.272-.758-.228-1.085.1L2.42 11.545c-.327.326-.42.762.053 1.235.795.796 3.221 1.933 5.154 0l5.154-5.154c1.933-1.933 1.037-4.117 0-5.154-.272-.273-.909-.38-1.235-.053L9.507 4.458c-.326.327-.37.813-.098 1.085z"/></g><defs><clipPath id="fclip0_1_11"><path d="M0 0h16v16H0z"/></clipPath></defs></svg><svg viewBox="0 0 24 24" id="phone-note" xmlns="http://www.w3.org/2000/svg"><g clip-path="url(#gclip0_1_66)" fill-rule="evenodd" clip-rule="evenodd"><path d="M18.18 10.08l-.223-.223c-1.284-1.283-3.058-.756-3.913.099l-2.038 2.038c-.394.394-.837 1.044-.86 1.928-.022.912.414 1.638.912 2.136.693.693 1.886 1.38 3.269 1.587 1.49.224 3.242-.114 4.714-1.587l5.154-5.154c1.395-1.395 1.873-3.032 1.685-4.57-.176-1.439-.911-2.64-1.684-3.412-.543-.543-1.252-.78-1.842-.83-.602-.051-1.508.063-2.223.777l-2.038 2.038c-.855.856-1.382 2.63-.099 3.913l.223.222a9.48 9.48 0 01-.501.537 9.5 9.5 0 01-.537.5zm2.229-2.674l1.117 1.118s.09.09.064.33c-.038.344-.319.998-1.46 2.14-1.14 1.14-1.795 1.42-2.14 1.459-.24.026-.33-.064-.33-.064l-1.117-1.117c-.273-.273-.758-.229-1.085.098L13.42 13.41c-.327.326-.42.762.053 1.235.795.796 3.221 1.933 5.154 0l5.154-5.154c1.933-1.933 1.037-4.117 0-5.154-.272-.273-.909-.38-1.235-.053l-2.039 2.039c-.326.326-.37.812-.098 1.084zM6.5 7a2.5 2.5 0 100-5 2.5 2.5 0 000 5zm0 2a4.5 4.5 0 100-9 4.5 4.5 0 000 9z"/><path d="M12.414 14.414A2 2 0 0111 15H2a2 2 0 01-2-2c0-1.672.75-3.221 1.99-4.323C3.22 7.58 4.846 7 6.5 7c1.653 0 3.279.582 4.51 1.677C12.25 9.779 13 11.327 13 13a2 2 0 01-.586 1.414zM2 13c0-.708.211-1.397.603-2 .195-.3.434-.58.715-.828C4.162 9.422 5.307 9 6.5 9c1.193 0 2.338.421 3.182 1.172.28.249.52.528.715.828.392.603.603 1.292.603 2H2z"/></g><defs><clipPath id="gclip0_1_66"><path d="M0 0h24v24H0z"/></clipPath></defs></svg><svg viewBox="0 0 24 24" id="requests" xmlns="http://www.w3.org/2000/svg"><path fill-rule="evenodd" clip-rule="evenodd" d="M18 3H6a1 1 0 00-1 1v16a1 1 0 001 1h12a1 1 0 001-1V4a1 1 0 00-1-1zM6 1a3 3 0 00-3 3v16a3 3 0 003 3h12a3 3 0 003-3V4a3 3 0 00-3-3H6z"/><path fill-rule="evenodd" clip-rule="evenodd" d="M7 6a1 1 0 011-1h8a1 1 0 110 2H8a1 1 0 01-1-1zM7 10a1 1 0 011-1h8a1 1 0 110 2H8a1 1 0 01-1-1zM7 14a1 1 0 011-1h6a1 1 0 110 2H8a1 1 0 01-1-1zM14 18a1 1 0 011-1h1a1 1 0 110 2h-1a1 1 0 01-1-1zM7 18a1 1 0 011-1h1a1 1 0 110 2H8a1 1 0 01-1-1z"/></svg><svg viewBox="0 0 32 32" id="requests-equip" xmlns="http://www.w3.org/2000/svg"><path fill-rule="evenodd" clip-rule="evenodd" d="M26 7H6v9h20V7zM4 5v11a2 2 0 002 2h20a2 2 0 002-2V5H4z"/><path fill-rule="evenodd" clip-rule="evenodd" d="M28 3H4v2h24V3zM2 1v6h28V1H2zM5 23a1 1 0 00-1 1v3a1 1 0 001 1h12v2H5a3 3 0 01-3-3v-3a3 3 0 013-3h11v2H5zm22 0h-3.107v-2H27a3 3 0 013 3v3a3 3 0 01-3 3h-4v-2h4a1 1 0 001-1v-3a1 1 0 00-1-1z"/><path fill-rule="evenodd" clip-rule="evenodd" d="M20 29a4 4 0 100-8 4 4 0 000 8zm0 2a6 6 0 100-12 6 6 0 000 12z"/><path d="M15 18h2v3h-2v-3zM6 29h2v3H6v-3zM25 29h2v3h-2v-3z"/></svg><svg viewBox="0 0 32 32" id="requests-pc" xmlns="http://www.w3.org/2000/svg"><path fill-rule="evenodd" clip-rule="evenodd" d="M20 4H3v14h17V4zM3 2a2 2 0 00-2 2v14a2 2 0 002 2h17a2 2 0 002-2V4a2 2 0 00-2-2H3z"/><path fill-rule="evenodd" clip-rule="evenodd" d="M13 20h-3v3h3v-3zm-3-2a2 2 0 00-2 2v3a2 2 0 002 2h3a2 2 0 002-2v-3a2 2 0 00-2-2h-3z"/><path fill-rule="evenodd" clip-rule="evenodd" d="M20 25H3v3h17v-3zM3 23a2 2 0 00-2 2v3a2 2 0 002 2h17a2 2 0 002-2v-3a2 2 0 00-2-2H3zM29 25h-3v3h3v-3zm-3-2a2 2 0 00-2 2v3a2 2 0 002 2h3a2 2 0 002-2v-3a2 2 0 00-2-2h-3zM29 4h-3v14h3V4zm-3-2a2 2 0 00-2 2v14a2 2 0 002 2h3a2 2 0 002-2V4a2 2 0 00-2-2h-3z"/></svg><svg viewBox="0 0 32 32" id="requests-print" xmlns="http://www.w3.org/2000/svg"><path fill-rule="evenodd" clip-rule="evenodd" d="M22 7H10v6h12V7zM10 5a2 2 0 00-2 2v8h16V7a2 2 0 00-2-2H10z"/><path fill-rule="evenodd" clip-rule="evenodd" d="M18 3h-4v2h4V3zm-4-2a2 2 0 00-2 2v4h8V3a2 2 0 00-2-2h-4zM22 29H10v-6h12v6zm-12 2a2 2 0 01-2-2v-8h16v8a2 2 0 01-2 2H10z"/><path fill-rule="evenodd" clip-rule="evenodd" d="M5 11a1 1 0 00-1 1v12a1 1 0 001 1h4v2H5a3 3 0 01-3-3V12a3 3 0 013-3h4v2H5zm22 0h-4V9h4a3 3 0 013 3v12a3 3 0 01-3 3h-4v-2h4a1 1 0 001-1V12a1 1 0 00-1-1z"/><path d="M24 18a1 1 0 11-2 0 1 1 0 012 0zM20 18a1 1 0 11-2 0 1 1 0 012 0z"/></svg><svg viewBox="0 0 24 24" id="room-orders" xmlns="http://www.w3.org/2000/svg"><path fill-rule="evenodd" clip-rule="evenodd" d="M4 3a2 2 0 012-2h12a2 2 0 012 2v20H4V11h2v10h12V3H6v3H4V3z"/><path fill-rule="evenodd" clip-rule="evenodd" d="M3 7v3h5V7H3zM2 5a1 1 0 00-1 1v5a1 1 0 001 1h7a1 1 0 001-1V6a1 1 0 00-1-1H2z"/><path d="M16 12.5a1.5 1.5 0 11-3 0 1.5 1.5 0 013 0z"/></svg><svg viewBox="0 0 24 24" id="search" xmlns="http://www.w3.org/2000/svg"><path fill-rule="evenodd" clip-rule="evenodd" d="M16 10.5c0 2.959-2.541 5.5-5.5 5.5S5 13.459 5 10.5 7.541 5 10.5 5 16 7.541 16 10.5zm-1.497 6.344a7.5 7.5 0 111.704-1.478l3.877 3.877-1.591 1.59-3.99-3.99z"/></svg><svg viewBox="0 0 5 8" id="triangle" xmlns="http://www.w3.org/2000/svg"><path d="M.006 8l4.988-3.984-.01-.01L5 3.994 0 0l.006 8z"/></svg></svg>