<?xml version="1.0" encoding="utf-8"?><svg viewBox="0 0 48 48" xmlns="http://www.w3.org/2000/svg" xmlns:xlink="http://www.w3.org/1999/xlink"><style>:root>svg{display:none}:root>svg:target{display:block}</style><svg fill="none" viewBox="0 0 48 48" id="logo-base" xmlns="http://www.w3.org/2000/svg"><path d="M20.839 8.57L10 3.15v3.162l10.839 5.42L38 6.461V5.258l-17.161 5.269V8.57z" fill="#1347FF"/><path d="M20.839 13.237L10 7.817v3.162l10.839 5.419L38 11.129V9.925l-17.161 5.269v-1.957z" fill="#1347FF"/><path d="M20.839 18.054L10 12.634v3.162l10.839 5.42L38 15.945v-1.204L20.839 20.01v-1.957z" fill="#1347FF"/><path d="M20.839 22.57L10 17.15v3.162l10.839 5.42L38 20.461v-1.204l-17.161 5.269V22.57z" fill="#1347FF"/><path d="M20.839 27.387L10 21.967v3.162l10.839 5.42L38 25.278v-1.204l-17.161 5.27v-1.958z" fill="#1347FF"/><path d="M20.839 32.204L10 26.784v3.162l10.839 5.42L38 30.096v-1.203L20.839 34.16v-1.957z" fill="#1347FF"/><path d="M20.839 36.72L10 31.301v3.161l10.839 5.42L38 34.613v-1.204l-17.161 5.269V36.72z" fill="#1347FF"/><path d="M20.839 41.538L10 36.118v3.162l10.839 5.419L38 39.43v-1.204l-17.161 5.269v-1.957zM12.71 3h21.677l-5.42 1.806H16.5L12.71 3z" fill="#1347FF"/></svg></svg>