<svg width="48" height="48" viewBox="0 0 48 48" fill="none" xmlns="http://www.w3.org/2000/svg">
<path d="M20.8387 8.56989L10 3.15054V6.31183L20.8387 11.7312L38 6.46232V5.25802L20.8387 10.5268L20.8387 8.56989Z" fill="#1347FF"/>
<path d="M20.8387 13.2366L10 7.8172V10.9785L20.8387 16.3979L38 11.1291V9.92485L20.8387 15.1937L20.8387 13.2366Z" fill="#1347FF"/>
<path d="M20.8387 18.0538L10 12.6344V15.7957L20.8387 21.2151L38 15.9462V14.7419L20.8387 20.0107L20.8387 18.0538Z" fill="#1347FF"/>
<path d="M20.8387 22.5699L10 17.1505V20.3118L20.8387 25.7312L38 20.4623V19.258L20.8387 24.5268L20.8387 22.5699Z" fill="#1347FF"/>
<path d="M20.8387 27.3871L10 21.9677V25.129L20.8387 30.5484L38 25.2796V24.0753L20.8387 29.3441L20.8387 27.3871Z" fill="#1347FF"/>
<path d="M20.8387 32.2043L10 26.7849V29.9462L20.8387 35.3656L38 30.0969V28.8926L20.8387 34.1614L20.8387 32.2043Z" fill="#1347FF"/>
<path d="M20.8387 36.7204L10 31.3011V34.4624L20.8387 39.8817L38 34.613V33.4087L20.8387 38.6775L20.8387 36.7204Z" fill="#1347FF"/>
<path d="M20.8387 41.5376L10 36.1183V39.2796L20.8387 44.6989L38 39.43V38.2257L20.8387 43.4945L20.8387 41.5376Z" fill="#1347FF"/>
<path d="M12.7097 3H34.3871L28.9677 4.80645H16.5L12.7097 3Z" fill="#1347FF"/>
</svg>
